<?xml version="1.0" standalone="no"?>
<!DOCTYPE svg PUBLIC "-//W3C//DTD SVG 20010904//EN"
 "http://www.w3.org/TR/2001/REC-SVG-20010904/DTD/svg10.dtd">
<svg version="1.0" xmlns="http://www.w3.org/2000/svg"
 width="1920.000000pt" height="1920.000000pt" viewBox="0 0 1920.000000 1920.000000"
 preserveAspectRatio="xMidYMid meet">
<metadata>
Created by potrace 1.11, written by Peter Selinger 2001-2013
</metadata>
<g transform="translate(0.000000,1920.000000) scale(0.100000,-0.100000)"
fill="#000000" stroke="none">
<path d="M4084 15405 c-176 -18 -426 -61 -533 -91 -124 -36 -244 -86 -426
-177 -88 -43 -200 -97 -250 -119 -49 -22 -133 -60 -186 -85 l-97 -45 -178 26
c-344 49 -482 59 -804 60 -304 1 -382 -5 -560 -40 -164 -33 -357 -111 -346
-140 3 -9 6 -18 6 -20 0 -2 11 -4 25 -4 13 0 41 -11 61 -25 40 -27 164 -69
323 -110 314 -79 656 -229 1107 -486 l191 -108 75 -103 c263 -359 315 -486
327 -793 l6 -160 19 38 c11 20 23 37 27 37 10 0 23 -45 44 -145 15 -71 70
-256 97 -325 l10 -24 18 24 c21 27 21 27 40 -47 9 -36 18 -46 62 -70 29 -15
63 -43 75 -62 53 -79 125 -343 258 -956 238 -1087 453 -1704 750 -2155 392
-593 1375 -1380 2310 -1848 522 -261 924 -386 1318 -408 64 -4 117 -10 117
-14 0 -27 -282 -716 -441 -1077 -147 -333 -228 -486 -383 -723 -159 -242 -245
-318 -489 -435 -211 -101 -227 -105 -434 -105 -98 1 -241 5 -318 10 -361 24
-434 24 -520 1 -121 -34 -182 -71 -285 -177 -51 -52 -90 -97 -87 -100 3 -3 48
19 100 50 51 30 107 60 123 67 30 11 363 19 370 8 2 -3 -45 -28 -103 -55 -124
-56 -192 -108 -258 -196 -53 -70 -92 -144 -82 -154 8 -8 83 39 204 128 50 38
104 73 120 79 54 21 123 13 220 -25 51 -20 108 -36 128 -36 19 0 35 -1 35 -2
0 -2 -41 -45 -91 -97 -49 -51 -88 -96 -85 -98 3 -3 36 12 73 34 165 98 158 96
351 98 94 0 172 -2 172 -5 0 -4 -48 -29 -107 -55 -98 -44 -116 -57 -193 -134
-77 -78 -162 -203 -147 -217 9 -9 58 21 177 106 192 137 206 140 365 80 l110
-42 110 5 c160 8 513 97 756 190 37 14 69 23 72 20 3 -3 -8 -32 -26 -65 -43
-82 -48 -160 -16 -260 12 -40 24 -66 25 -58 2 8 6 36 9 62 9 67 42 103 101
112 90 12 158 59 334 235 144 144 174 169 237 198 124 57 182 66 398 59 105
-4 217 -9 250 -12 52 -5 58 -4 46 9 -21 26 -172 94 -246 111 -121 28 -245 39
-352 32 -85 -5 -104 -4 -117 9 -9 9 -16 24 -16 33 0 32 30 117 46 129 9 7 11
13 5 17 -7 4 -7 15 -1 29 5 12 29 76 54 142 109 297 322 784 443 1015 85 161
352 633 475 838 44 73 95 165 113 205 l34 73 123 12 c234 23 480 88 640 168
196 98 383 244 764 599 166 154 255 232 381 334 57 45 180 153 274 239 323
296 481 418 659 507 257 129 647 197 1520 265 146 11 323 27 395 36 128 14
130 15 200 62 67 45 78 49 285 96 231 51 284 68 278 88 -3 10 -141 54 -208 67
-14 3 29 21 50 21 14 0 36 7 49 16 26 19 71 107 71 142 0 31 -32 43 -234 92
-233 56 -343 88 -401 116 -93 47 -98 81 -22 161 116 123 452 316 762 438 327
129 771 202 1900 314 587 59 653 62 1200 67 275 3 520 7 545 10 62 8 38 19
-107 48 -145 30 -737 163 -778 175 -21 6 25 9 145 10 202 1 220 4 220 36 0 21
-4 22 -119 29 -65 4 -207 6 -315 5 -189 -1 -246 4 -175 15 27 4 768 26 882 26
30 0 38 24 11 34 -9 4 -157 13 -328 21 -443 21 -526 27 -532 37 -3 5 2 21 11
35 l17 26 152 -6 c447 -19 531 -20 518 -6 -10 11 -9 16 9 30 21 16 20 16 -29
23 -69 9 -74 24 -11 32 37 5 47 9 36 16 -56 31 -461 58 -962 65 -220 3 -872 0
-1450 -5 -1406 -14 -2985 7 -3370 43 -158 15 -418 55 -525 80 l-55 12 34 10
c44 11 60 35 41 58 -16 19 -147 108 -250 170 -36 22 -105 56 -155 76 -49 20
-89 41 -88 47 6 27 -709 322 -1017 420 -288 92 -912 217 -1140 229 -119 6 -96
-3 -725 273 -752 330 -1173 528 -1322 623 -274 175 -780 609 -1092 938 -294
308 -517 527 -606 594 -189 142 -411 219 -730 255 -121 13 -410 11 -571 -5z
m4584 -8447 c17 -148 15 -176 -19 -275 -90 -256 -433 -1072 -559 -1328 -57
-117 -224 -415 -254 -452 0 -1 -50 5 -111 14 -75 10 -144 12 -217 8 -106 -7
-107 -6 -123 19 -16 24 -15 31 34 175 123 363 383 964 547 1264 109 199 356
631 372 649 14 17 30 19 252 26 l66 2 12 -102z m-918 -2176 c0 -17 -136 -155
-194 -196 -128 -91 -399 -212 -497 -223 l-59 -6 173 171 c186 184 215 203 362
242 70 19 215 27 215 12z m-1000 -287 c0 -3 -14 -32 -32 -65 l-31 -60 -51 0
c-28 0 -96 3 -150 7 l-99 6 164 57 c154 54 199 67 199 55z"/>
</g>
</svg>
